<svg width="33" height="33" viewBox="0 0 33 33" fill="none" xmlns="http://www.w3.org/2000/svg">
<path d="M11.1641 16.5H11.176M16.4915 16.5H16.5033M21.8188 16.5H21.8307" stroke="#074077" stroke-width="2.66667" stroke-linecap="round" stroke-linejoin="round"/>
<path d="M24.5 28.5C26.1429 28.5 27.4747 26.965 27.4747 25.0715C27.4747 22.0744 27.3416 20.0819 29.3977 17.7122C29.9785 17.0427 29.9785 15.9572 29.3977 15.2878C27.3416 12.9181 27.4747 10.9255 27.4747 7.92857C27.4747 6.03503 26.1429 4.5 24.5 4.5" stroke="#074077" stroke-width="2" stroke-linecap="round" stroke-linejoin="round"/>
<path d="M8.4974 28.5C6.85452 28.5 5.52269 26.965 5.52269 25.0715C5.52269 22.0744 5.65576 20.0819 3.5997 17.7122C3.01885 17.0427 3.01885 15.9572 3.5997 15.2878C5.61068 12.97 5.52269 10.9532 5.52269 7.92857C5.52269 6.03503 6.85452 4.5 8.4974 4.5" stroke="#074077" stroke-width="2" stroke-linecap="round" stroke-linejoin="round"/>
</svg>
