<svg width="35" height="35" viewBox="0 0 35 35" fill="none" xmlns="http://www.w3.org/2000/svg">
<path d="M4.897 18.6057C4.48152 12.649 4.27377 9.67072 5.99519 7.69114C7.71662 5.71158 10.6949 5.50383 16.6516 5.08835C22.6082 4.67287 25.5865 4.46512 27.5662 6.18653C29.5457 7.90797 29.7534 10.8863 30.1689 16.8429C30.5844 22.7995 30.7922 25.7779 29.0708 27.7575C27.3493 29.7371 24.3709 29.9448 18.4143 30.3603C12.4577 30.7758 9.47937 30.9835 7.4998 29.2621C5.52023 27.5407 5.31248 24.5623 4.897 18.6057Z" stroke="white" stroke-width="2"/>
<path d="M4.625 14.6152L29.8969 12.8525" stroke="white" stroke-width="2" stroke-linejoin="round"/>
<path d="M18.9609 18.9609L24.2813 18.5898" stroke="white" stroke-width="2" stroke-linecap="round" stroke-linejoin="round"/>
<path d="M19.3281 24.2812L21.9883 24.0957" stroke="white" stroke-width="2" stroke-linecap="round" stroke-linejoin="round"/>
<path d="M10.3281 10.207L10.3401 10.2062" stroke="white" stroke-width="2.66667" stroke-linecap="round" stroke-linejoin="round"/>
<path d="M15.6484 9.83594L15.6604 9.8351" stroke="white" stroke-width="2.66667" stroke-linecap="round" stroke-linejoin="round"/>
<path d="M13.2656 14.0117L14.4253 30.638" stroke="white" stroke-width="2" stroke-linecap="round" stroke-linejoin="round"/>
</svg>
