<svg width="33" height="33" viewBox="0 0 33 33" fill="none" xmlns="http://www.w3.org/2000/svg">
<path d="M7.16406 12.5003C7.16406 8.10055 7.16406 5.90066 8.5309 4.53383C9.89773 3.16699 12.0976 3.16699 16.4974 3.16699C20.8971 3.16699 23.097 3.16699 24.4639 4.53383C25.8307 5.90066 25.8307 8.10055 25.8307 12.5003V20.5003C25.8307 24.9001 25.8307 27.0999 24.4639 28.4669C23.097 29.8337 20.8971 29.8337 16.4974 29.8337C12.0976 29.8337 9.89773 29.8337 8.5309 28.4669C7.16406 27.0999 7.16406 24.9001 7.16406 20.5003V12.5003Z" stroke="#074077" stroke-width="2" stroke-linecap="round"/>
<path d="M15.1641 25.833H17.8307" stroke="#074077" stroke-width="2" stroke-linecap="round" stroke-linejoin="round"/>
<path d="M12.5 3.16699L12.6187 3.87902C12.8758 5.42205 13.0044 6.19357 13.5336 6.66305C14.0856 7.15278 14.8681 7.16699 16.5 7.16699C18.1319 7.16699 18.9144 7.15278 19.4664 6.66305C19.9956 6.19357 20.1241 5.42205 20.3813 3.87902L20.5 3.16699" stroke="#074077" stroke-width="2" stroke-linejoin="round"/>
</svg>
