<svg width="33" height="33" viewBox="0 0 33 33" fill="none" xmlns="http://www.w3.org/2000/svg">
<g clip-path="url(#clip0_1070_1144)">
<path d="M25.1641 14.0043C25.1641 8.89558 25.1641 6.34118 23.6019 4.75409C22.0399 3.16699 19.5257 3.16699 14.4974 3.16699H11.8307C6.80241 3.16699 4.28826 3.16699 2.72616 4.75409C1.16406 6.34118 1.16406 8.89558 1.16406 14.0043C1.16406 19.1131 1.16406 21.6675 2.72616 23.2546C3.3523 23.8907 4.1314 24.2719 5.16406 24.5003" stroke="#074077" stroke-width="2" stroke-linecap="round"/>
<path d="M27.8307 23.833C27.8307 21.3331 27.8307 20.0833 27.1941 19.207C26.9885 18.9241 26.7397 18.6753 26.4567 18.4697C25.5805 17.833 24.3306 17.833 21.8307 17.833H15.1641C12.6642 17.833 11.4143 17.833 10.5381 18.4697C10.2551 18.6753 10.0063 18.9241 9.80068 19.207C9.16406 20.0833 9.16406 21.3331 9.16406 23.833C9.16406 26.3329 9.16406 27.5827 9.80068 28.459C10.0063 28.7419 10.2551 28.9907 10.5381 29.1963C11.4143 29.833 12.6642 29.833 15.1641 29.833H21.8307C24.3306 29.833 25.5805 29.833 26.4567 29.1963C26.7397 28.9907 26.9885 28.7419 27.1941 28.459C27.8307 27.5827 27.8307 26.3329 27.8307 23.833Z" stroke="#074077" stroke-width="2"/>
<path d="M20.5 21.833L21.7265 22.8902C22.2421 23.3346 22.5 23.5569 22.5 23.833C22.5 24.1091 22.2421 24.3314 21.7265 24.7758L20.5 25.833" stroke="#074077" stroke-width="2" stroke-linecap="round" stroke-linejoin="round"/>
<path d="M16.5 21.833L15.2735 22.8902C14.7579 23.3346 14.5 23.5569 14.5 23.833C14.5 24.1091 14.7579 24.3314 15.2735 24.7758L16.5 25.833" stroke="#074077" stroke-width="2" stroke-linecap="round" stroke-linejoin="round"/>
<path d="M1.83594 8.5H24.5026" stroke="#074077" stroke-width="2" stroke-linecap="round" stroke-linejoin="round"/>
</g>
<defs>
<clipPath id="clip0_1070_1144">
<rect width="32" height="32" fill="white" transform="translate(0.5 0.5)"/>
</clipPath>
</defs>
</svg>
