<svg width="33" height="32" viewBox="0 0 33 32" fill="none" xmlns="http://www.w3.org/2000/svg">
<path d="M21.8307 12.0003C21.8307 6.84567 17.6521 2.66699 12.4974 2.66699C7.34274 2.66699 3.16406 6.84567 3.16406 12.0003C3.16406 17.155 7.34274 21.3337 12.4974 21.3337" stroke="#074077" stroke-width="2"/>
<path d="M21.8333 12H20.5C16.7288 12 14.8432 12 13.6716 13.1716C12.5 14.3432 12.5 16.2288 12.5 20V21.3333C12.5 25.1045 12.5 26.9901 13.6716 28.1617C14.8432 29.3333 16.7288 29.3333 20.5 29.3333H21.8333C25.6045 29.3333 27.4901 29.3333 28.6617 28.1617C29.8333 26.9901 29.8333 25.1045 29.8333 21.3333V20C29.8333 16.2288 29.8333 14.3432 28.6617 13.1716C27.4901 12 25.6045 12 21.8333 12Z" stroke="#074077" stroke-width="2"/>
</svg>
