<svg width="24" height="25" viewBox="0 0 24 25" fill="none" xmlns="http://www.w3.org/2000/svg">
<g id="Frame">
<path id="Vector" d="M2.5 12.9238C2.5 8.44549 2.5 6.20632 3.89124 4.81507C5.28249 3.42383 7.52166 3.42383 12 3.42383C16.4783 3.42383 18.7175 3.42383 20.1088 4.81507C21.5 6.20632 21.5 8.44549 21.5 12.9238C21.5 17.4021 21.5 19.6413 20.1088 21.0326C18.7175 22.4238 16.4783 22.4238 12 22.4238C7.52166 22.4238 5.28249 22.4238 3.89124 21.0326C2.5 19.6413 2.5 17.4021 2.5 12.9238Z" stroke="white" stroke-width="1.5"/>
<path id="Vector_2" d="M10 9.92383C10 8.81926 10.8954 7.92383 12 7.92383C13.1046 7.92383 14 8.81926 14 9.92383C14 10.322 13.8837 10.693 13.6831 11.0046C13.0854 11.9335 12 12.8192 12 13.9238V14.4238" stroke="white" stroke-width="1.5" stroke-linecap="round"/>
<path id="Vector_3" d="M11.9922 17.9238H12.0012" stroke="white" stroke-width="2" stroke-linecap="round" stroke-linejoin="round"/>
</g>
</svg>
