<svg width="25" height="25" viewBox="0 0 25 25" fill="none" xmlns="http://www.w3.org/2000/svg">
<g id="Frame">
<path id="Vector" d="M15.2015 2.65039C14.2165 2.32594 13.1639 2.15039 12.0703 2.15039C6.54746 2.15039 2.07031 6.62754 2.07031 12.1504C2.07031 17.6732 6.54746 22.1504 12.0703 22.1504C17.5931 22.1504 22.0703 17.6732 22.0703 12.1504C22.0703 11.1052 21.9099 10.0974 21.6125 9.15039" stroke="white" stroke-width="1.5" stroke-linecap="round"/>
<path id="Vector_2" d="M17.0703 12.1504C17.0703 14.9118 14.8317 17.1504 12.0703 17.1504C9.30889 17.1504 7.07031 14.9118 7.07031 12.1504C7.07031 9.38897 9.30889 7.15039 12.0703 7.15039" stroke="white" stroke-width="1.5" stroke-linecap="round" stroke-linejoin="round"/>
<path id="Vector_3" d="M19.5703 4.65039L12.0703 12.1504M19.5703 4.65039V2.15039M19.5703 4.65039H22.0703" stroke="white" stroke-width="1.5" stroke-linecap="round"/>
</g>
</svg>
