<svg width="722" height="763" viewBox="0 0 722 763" fill="none" xmlns="http://www.w3.org/2000/svg">
<path opacity="0.1" fill-rule="evenodd" clip-rule="evenodd" d="M1026.5 763L1026.5 701.5H1085V700.5H1026.5L1026.5 621.5H1085V620.5H1026.5L1026.5 541.5H1085V540.5H1026.5L1026.5 461.5H1085V460.5H1026.5L1026.5 381.5H1085V380.5H1026.5L1026.5 301.5H1085V300.5H1026.5L1026.5 221.5H1085V220.5H1026.5L1026.5 141.5H1085V140.5H1026.5L1026.5 61.5H1085V60.5H1026.5L1026.5 0H1025.5L1025.5 60.5H946.5V0H945.5V60.5H866.5V0H865.5V60.5H786.5V0H785.5V60.5H706.5V0H705.5V60.5H626.5V0H625.5V60.5H546.5V0H545.5V60.5H466.5V0H465.5V60.5H386.5V0H385.5V60.5H306.5V0H305.5V60.5H226.5V0H225.5V60.5H146.5V0H145.5V60.5H66.4994V0H65.4994V60.5H0V61.5H65.4994V140.5H0V141.5H65.4994V220.5H0V221.5H65.4994V300.5H0V301.5H65.4994V380.5H0V381.5H65.4994L65.4995 460.5H0V461.5H65.4995V540.5H0V541.5H65.4995V620.5H0V621.5H65.4995V700.5H0V701.5H65.4995V763H66.4995V701.5H145.5V763H146.5V701.5H225.5V763H226.5V701.5H305.5V763H306.5V701.5H385.5V763H386.5V701.5H465.5V763H466.5V701.5H545.5V763H546.5V701.5H625.5V763H626.5V701.5H705.5V763H706.5V701.5H785.5V763H786.5V701.5H865.5V763H866.5V701.5H945.5V763H946.5V701.5H1025.5L1025.5 763H1026.5ZM145.5 61.5H66.4994V140.5H145.5V61.5ZM145.5 141.5H66.4994V220.5H145.5V141.5ZM145.5 221.5H66.4994V300.5H145.5V221.5ZM145.5 301.5H66.4994V380.5H145.5V301.5ZM145.5 381.5H66.4994L66.4995 460.5H145.5L145.5 381.5ZM145.5 461.5H66.4995V540.5H145.5V461.5ZM145.5 541.5H66.4995V620.5H145.5V541.5ZM145.5 621.5H66.4995V700.5H145.5V621.5ZM146.5 700.5V621.5H225.5V700.5H146.5ZM146.5 620.5V541.5H225.5V620.5H146.5ZM146.5 540.5V461.5H225.5V540.5H146.5ZM146.5 460.5L146.5 381.5H225.5L225.5 460.5H146.5ZM146.5 380.5V301.5H225.5V380.5H146.5ZM146.5 300.5V221.5H225.5V300.5H146.5ZM146.5 220.5V141.5H225.5V220.5H146.5ZM146.5 140.5V61.5H225.5V140.5H146.5ZM305.5 61.5H226.5V140.5H305.5V61.5ZM305.5 141.5H226.5V220.5H305.5V141.5ZM305.5 221.5H226.5V300.5H305.5V221.5ZM305.5 381.5H226.5L226.5 460.5H305.5V381.5ZM305.5 461.5H226.5V540.5H305.5V461.5ZM305.5 541.5H226.5V620.5H305.5V541.5ZM305.5 621.5H226.5V700.5H305.5V621.5ZM306.5 700.5V621.5H385.5V700.5H306.5ZM306.5 620.5V541.5H385.5V620.5H306.5ZM306.5 540.5V461.5H385.5V540.5H306.5ZM306.5 460.5V381.5H385.5L385.5 460.5H306.5ZM306.5 380.5V301.5H385.5V380.5H306.5ZM306.5 300.5V221.5H385.5V300.5H306.5ZM306.5 220.5V141.5H385.5V220.5H306.5ZM306.5 140.5V61.5H385.5V140.5H306.5ZM465.5 141.5H386.5V220.5H465.5V141.5ZM465.5 221.5H386.5V300.5H465.5V221.5ZM465.5 301.5H386.5V380.5H465.5V301.5ZM465.5 381.5H386.5L386.5 460.5H465.5V381.5ZM465.5 461.5H386.5V540.5H465.5V461.5ZM465.5 541.5H386.5V620.5H465.5V541.5ZM465.5 621.5H386.5V700.5H465.5V621.5ZM466.5 700.5V621.5H545.5V700.5H466.5ZM466.5 620.5V541.5H545.5V620.5H466.5ZM466.5 540.5V461.5H545.5V540.5H466.5ZM466.5 460.5V381.5H545.5V460.5H466.5ZM466.5 380.5V301.5H545.5V380.5H466.5ZM466.5 300.5V221.5H545.5V300.5H466.5ZM466.5 220.5V141.5H545.5V220.5H466.5ZM466.5 140.5V61.5H545.5V140.5H466.5ZM625.5 61.5H546.5V140.5H625.5V61.5ZM625.5 141.5H546.5V220.5H625.5V141.5ZM625.5 221.5H546.5V300.5H625.5V221.5ZM625.5 301.5H546.5V380.5H625.5V301.5ZM625.5 381.5H546.5V460.5H625.5L625.5 381.5ZM625.5 461.5H546.5V540.5H625.5V461.5ZM625.5 541.5H546.5V620.5H625.5V541.5ZM625.5 621.5H546.5V700.5H625.5V621.5ZM626.5 700.5V621.5H705.5V700.5H626.5ZM626.5 620.5V541.5H705.5V620.5H626.5ZM626.5 460.5L626.5 381.5H705.5L705.5 460.5H626.5ZM626.5 380.5V301.5H705.5V380.5H626.5ZM626.5 300.5V221.5H705.5V300.5H626.5ZM626.5 220.5V141.5H705.5V220.5H626.5ZM626.5 140.5V61.5H705.5V140.5H626.5ZM785.5 61.5H706.5V140.5H785.5V61.5ZM785.5 141.5H706.5V220.5H785.5V141.5ZM785.5 221.5H706.5V300.5H785.5V221.5ZM785.5 301.5H706.5V380.5H785.5V301.5ZM785.5 381.5H706.5L706.5 460.5H785.5L785.5 381.5ZM785.5 461.5H706.5V540.5H785.5V461.5ZM785.5 541.5H706.5V620.5H785.5V541.5ZM785.5 621.5H706.5V700.5H785.5V621.5ZM786.5 700.5V621.5H865.5L865.5 700.5H786.5ZM786.5 620.5V541.5H865.5V620.5H786.5ZM786.5 540.5V461.5H865.5V540.5H786.5ZM786.5 460.5L786.5 381.5H865.5V460.5H786.5ZM786.5 380.5V301.5H865.5V380.5H786.5ZM786.5 300.5V221.5H865.5V300.5H786.5ZM786.5 220.5V141.5H865.5V220.5H786.5ZM786.5 140.5V61.5H865.5L865.5 140.5H786.5ZM945.5 61.5H866.5L866.5 140.5H945.5L945.5 61.5ZM945.5 141.5H866.5V220.5H945.5V141.5ZM945.5 221.5H866.5V300.5H945.5V221.5ZM945.5 301.5H866.5V380.5H945.5V301.5ZM945.5 381.5H866.5V460.5H945.5V381.5ZM945.5 461.5H866.5V540.5H945.5V461.5ZM945.5 541.5H866.5V620.5H945.5V541.5ZM945.5 621.5H866.5L866.5 700.5H945.5L945.5 621.5ZM946.5 700.5L946.5 621.5H1025.5L1025.5 700.5H946.5ZM946.5 620.5V541.5H1025.5L1025.5 620.5H946.5ZM946.5 540.5V461.5H1025.5L1025.5 540.5H946.5ZM946.5 460.5V381.5H1025.5L1025.5 460.5H946.5ZM946.5 380.5V301.5H1025.5L1025.5 380.5H946.5ZM946.5 300.5V221.5H1025.5L1025.5 300.5H946.5ZM946.5 220.5V141.5H1025.5L1025.5 220.5H946.5ZM946.5 140.5L946.5 61.5H1025.5L1025.5 140.5H946.5Z" fill="url(#paint0_linear_1065_4877)"/>
<defs>
<linearGradient id="paint0_linear_1065_4877" x1="1000" y1="138" x2="224" y2="625.5" gradientUnits="userSpaceOnUse">
<stop stop-color="#002B55"/>
<stop offset="1" stop-color="#0E4B86" stop-opacity="0"/>
</linearGradient>
</defs>
</svg>
