<svg width="995" height="763" viewBox="0 0 995 763" fill="none" xmlns="http://www.w3.org/2000/svg">
<path opacity="0.1" fill-rule="evenodd" clip-rule="evenodd" d="M-31.5 763L-31.5 701.5H-90V700.5H-31.5L-31.5 621.5H-90V620.5H-31.5L-31.5 541.5H-90V540.5H-31.5L-31.5 461.5H-90V460.5H-31.5L-31.5 381.5H-90V380.5H-31.5L-31.5 301.5H-90V300.5H-31.5L-31.5 221.5H-90V220.5H-31.5L-31.5 141.5H-90V140.5H-31.5L-31.5 61.5H-90V60.5H-31.5L-31.5 0H-30.5L-30.5 60.5H48.5V0H49.5V60.5H128.5V0H129.5V60.5H208.5V0H209.5V60.5H288.5V0H289.5V60.5H368.5V0H369.5V60.5H448.5V0H449.5V60.5H528.5V0H529.5V60.5H608.5V0H609.5V60.5H688.5V0H689.5V60.5H768.5V0H769.5V60.5H848.5V0H849.5V60.5H928.501V0H929.501V60.5H995V61.5H929.501V140.5H995V141.5H929.501V220.5H995V221.5H929.501V300.5H995V301.5H929.501V380.5H995V381.5H929.501L929.501 460.5H995V461.5H929.501V540.5H995V541.5H929.501V620.5H995V621.5H929.501V700.5H995V701.5H929.501V763H928.501V701.5H849.5V763H848.5V701.5H769.5V763H768.5V701.5H689.5V763H688.5V701.5H609.5V763H608.5V701.5H529.5V763H528.5V701.5H449.5V763H448.5V701.5H369.5V763H368.5V701.5H289.5V763H288.5V701.5H209.5V763H208.5V701.5H129.5V763H128.5V701.5H49.5V763H48.5V701.5H-30.5L-30.5 763H-31.5ZM849.5 61.5H928.501V140.5H849.5V61.5ZM849.5 141.5H928.501V220.5H849.5V141.5ZM849.5 221.5H928.501V300.5H849.5V221.5ZM849.5 301.5H928.501V380.5H849.5V301.5ZM849.5 381.5H928.501L928.501 460.5H849.5L849.5 381.5ZM849.5 461.5H928.501V540.5H849.5V461.5ZM849.5 541.5H928.501V620.5H849.5V541.5ZM849.5 621.5H928.501V700.5H849.5V621.5ZM848.5 700.5V621.5H769.5V700.5H848.5ZM848.5 620.5V541.5H769.5V620.5H848.5ZM848.5 540.5V461.5H769.5V540.5H848.5ZM848.5 460.5L848.5 381.5H769.5L769.5 460.5H848.5ZM848.5 380.5V301.5H769.5V380.5H848.5ZM848.5 300.5V221.5H769.5V300.5H848.5ZM848.5 220.5V141.5H769.5V220.5H848.5ZM848.5 140.5V61.5H769.5V140.5H848.5ZM689.5 61.5H768.5V140.5H689.5V61.5ZM689.5 141.5H768.5V220.5H689.5V141.5ZM689.5 221.5H768.5V300.5H689.5V221.5ZM689.5 381.5H768.5L768.5 460.5H689.5V381.5ZM689.5 461.5H768.5V540.5H689.5V461.5ZM689.5 541.5H768.5V620.5H689.5V541.5ZM689.5 621.5H768.5V700.5H689.5V621.5ZM688.5 700.5V621.5H609.5V700.5H688.5ZM688.5 620.5V541.5H609.5V620.5H688.5ZM688.5 540.5V461.5H609.5V540.5H688.5ZM688.5 460.5V381.5H609.5L609.5 460.5H688.5ZM688.5 380.5V301.5H609.5V380.5H688.5ZM688.5 300.5V221.5H609.5V300.5H688.5ZM688.5 220.5V141.5H609.5V220.5H688.5ZM688.5 140.5V61.5H609.5V140.5H688.5ZM529.5 141.5H608.5V220.5H529.5V141.5ZM529.5 221.5H608.5V300.5H529.5V221.5ZM529.5 301.5H608.5V380.5H529.5V301.5ZM529.5 381.5H608.5L608.5 460.5H529.5V381.5ZM529.5 461.5H608.5V540.5H529.5V461.5ZM529.5 541.5H608.5V620.5H529.5V541.5ZM529.5 621.5H608.5V700.5H529.5V621.5ZM528.5 700.5V621.5H449.5V700.5H528.5ZM528.5 620.5V541.5H449.5V620.5H528.5ZM528.5 540.5V461.5H449.5V540.5H528.5ZM528.5 460.5V381.5H449.5V460.5H528.5ZM528.5 380.5V301.5H449.5V380.5H528.5ZM528.5 300.5V221.5H449.5V300.5H528.5ZM528.5 220.5V141.5H449.5V220.5H528.5ZM528.5 140.5V61.5H449.5V140.5H528.5ZM369.5 61.5H448.5V140.5H369.5V61.5ZM369.5 141.5H448.5V220.5H369.5V141.5ZM369.5 221.5H448.5V300.5H369.5V221.5ZM369.5 301.5H448.5V380.5H369.5V301.5ZM369.5 381.5H448.5V460.5H369.5L369.5 381.5ZM369.5 461.5H448.5V540.5H369.5V461.5ZM369.5 541.5H448.5V620.5H369.5V541.5ZM369.5 621.5H448.5V700.5H369.5V621.5ZM368.5 700.5V621.5H289.5V700.5H368.5ZM368.5 620.5V541.5H289.5V620.5H368.5ZM368.5 460.5L368.5 381.5H289.5L289.5 460.5H368.5ZM368.5 380.5V301.5H289.5V380.5H368.5ZM368.5 300.5V221.5H289.5V300.5H368.5ZM368.5 220.5V141.5H289.5V220.5H368.5ZM368.5 140.5V61.5H289.5V140.5H368.5ZM209.5 61.5H288.5V140.5H209.5V61.5ZM209.5 141.5H288.5V220.5H209.5V141.5ZM209.5 221.5H288.5V300.5H209.5V221.5ZM209.5 301.5H288.5V380.5H209.5V301.5ZM209.5 381.5H288.5L288.5 460.5H209.5L209.5 381.5ZM209.5 461.5H288.5V540.5H209.5V461.5ZM209.5 541.5H288.5V620.5H209.5V541.5ZM209.5 621.5H288.5V700.5H209.5V621.5ZM208.5 700.5V621.5H129.5L129.5 700.5H208.5ZM208.5 620.5V541.5H129.5V620.5H208.5ZM208.5 540.5V461.5H129.5V540.5H208.5ZM208.5 460.5L208.5 381.5H129.5V460.5H208.5ZM208.5 380.5V301.5H129.5V380.5H208.5ZM208.5 300.5V221.5H129.5V300.5H208.5ZM208.5 220.5V141.5H129.5V220.5H208.5ZM208.5 140.5V61.5H129.5L129.5 140.5H208.5ZM49.5 61.5H128.5L128.5 140.5H49.5L49.5 61.5ZM49.5 141.5H128.5V220.5H49.5V141.5ZM49.5 221.5H128.5V300.5H49.5V221.5ZM49.5 301.5H128.5V380.5H49.5V301.5ZM49.5 381.5H128.5V460.5H49.5V381.5ZM49.5 461.5H128.5V540.5H49.5V461.5ZM49.5 541.5H128.5V620.5H49.5V541.5ZM49.5 621.5H128.5L128.5 700.5H49.5L49.5 621.5ZM48.5 700.5L48.5 621.5H-30.5L-30.5 700.5H48.5ZM48.5 620.5V541.5H-30.5L-30.5 620.5H48.5ZM48.5 540.5V461.5H-30.5L-30.5 540.5H48.5ZM48.5 460.5V381.5H-30.5L-30.5 460.5H48.5ZM48.5 380.5V301.5H-30.5L-30.5 380.5H48.5ZM48.5 300.5V221.5H-30.5L-30.5 300.5H48.5ZM48.5 220.5V141.5H-30.5L-30.5 220.5H48.5ZM48.5 140.5L48.5 61.5H-30.5L-30.5 140.5H48.5Z" fill="url(#paint0_linear_1065_4822)"/>
<defs>
<linearGradient id="paint0_linear_1065_4822" x1="-5" y1="138" x2="771" y2="625.5" gradientUnits="userSpaceOnUse">
<stop stop-color="#A96C00"/>
<stop offset="1" stop-color="#95650F" stop-opacity="0"/>
</linearGradient>
</defs>
</svg>
