<svg width="25" height="25" viewBox="0 0 25 25" fill="none" xmlns="http://www.w3.org/2000/svg">
<path d="M12.4611 5.69043C17.2354 4.06284 19.6225 3.24905 20.9065 4.533C22.1904 5.81695 21.3766 8.2041 19.7491 12.9784L18.6407 16.2296C17.3908 19.8962 16.7658 21.7295 15.7355 21.8812C15.4586 21.922 15.1719 21.8975 14.8978 21.8095C13.8786 21.4823 13.3398 19.5493 12.2622 15.6834C12.0232 14.8259 11.9037 14.3971 11.6315 14.0696C11.5525 13.9746 11.4649 13.887 11.3699 13.808C11.0424 13.5358 10.6136 13.4163 9.75611 13.1773C5.89017 12.0997 3.9572 11.5609 3.62996 10.5417C3.54198 10.2676 3.51743 9.98092 3.55822 9.70394C3.70994 8.67371 5.54325 8.04873 9.20986 6.79877L12.4611 5.69043Z" stroke="white" stroke-width="1.5"/>
</svg>
