<svg width="23" height="24" viewBox="0 0 23 24" fill="none" xmlns="http://www.w3.org/2000/svg">
<path d="M3.20312 12.0002C7.44198 12.0002 11.6808 7.76131 11.6808 3.52246C11.6808 7.76131 15.9197 12.0002 20.1585 12.0002C15.9197 12.0002 11.6808 16.239 11.6808 20.4779C11.6808 16.239 7.44198 12.0002 3.20312 12.0002Z" stroke="white" stroke-width="1.41295" stroke-linejoin="round"/>
<path d="M2.25781 19.0649C3.04278 19.0649 4.61273 17.4949 4.61273 16.71C4.61273 17.4949 6.18268 19.0649 6.96765 19.0649C6.18268 19.0649 4.61273 20.6349 4.61273 21.4198C4.61273 20.6349 3.04278 19.0649 2.25781 19.0649Z" stroke="white" stroke-width="1.41295" stroke-linejoin="round"/>
<path d="M15.4453 5.40598C16.3873 5.40598 18.2712 3.52205 18.2712 2.58008C18.2712 3.52205 20.1551 5.40598 21.0971 5.40598C20.1551 5.40598 18.2712 7.28991 18.2712 8.23188C18.2712 7.28991 16.3873 5.40598 15.4453 5.40598Z" stroke="white" stroke-width="1.41295" stroke-linejoin="round"/>
</svg>
