<svg width="31" height="37" viewBox="0 0 31 37" fill="none" xmlns="http://www.w3.org/2000/svg">
<g id="Group 2">
<path id="Star 1" d="M17.5659 15.6914L20.0369 23.8098L28.1553 26.2808L20.0369 28.7517L17.5659 36.8701L15.0949 28.7517L6.97656 26.2808L15.0949 23.8098L17.5659 15.6914Z" fill="white"/>
<g id="Star 2" filter="url(#filter0_f_1070_1070)">
<path d="M8.629 3.20117L10.4092 9.04998L16.258 10.8302L10.4092 12.6104L8.629 18.4592L6.84881 12.6104L1 10.8302L6.84881 9.04998L8.629 3.20117Z" fill="#FFA300"/>
</g>
<g id="Star 3" filter="url(#filter1_f_1070_1070)">
<path d="M23.8914 1L25.1585 5.16327L29.3218 6.43043L25.1585 7.6976L23.8914 11.8609L22.6242 7.6976L18.4609 6.43043L22.6242 5.16327L23.8914 1Z" fill="#FFA300"/>
</g>
</g>
<defs>
<filter id="filter0_f_1070_1070" x="0.565565" y="2.76674" width="16.1267" height="16.1267" filterUnits="userSpaceOnUse" color-interpolation-filters="sRGB">
<feFlood flood-opacity="0" result="BackgroundImageFix"/>
<feBlend mode="normal" in="SourceGraphic" in2="BackgroundImageFix" result="shape"/>
<feGaussianBlur stdDeviation="0.217217" result="effect1_foregroundBlur_1070_1070"/>
</filter>
<filter id="filter1_f_1070_1070" x="17.6464" y="0.185435" width="12.4885" height="12.4905" filterUnits="userSpaceOnUse" color-interpolation-filters="sRGB">
<feFlood flood-opacity="0" result="BackgroundImageFix"/>
<feBlend mode="normal" in="SourceGraphic" in2="BackgroundImageFix" result="shape"/>
<feGaussianBlur stdDeviation="0.407282" result="effect1_foregroundBlur_1070_1070"/>
</filter>
</defs>
</svg>
