<svg width="125" height="266" viewBox="0 0 125 266" fill="none" xmlns="http://www.w3.org/2000/svg">
<g clip-path="url(#clip0_1070_1189)">
<path d="M109.643 33.4062C116.971 25.9422 128.997 25.9422 136.325 33.4062L146.181 43.4462C150.459 47.8034 156.595 49.7971 162.616 48.7863L176.492 46.4574C186.807 44.726 196.536 51.7946 198.077 62.1403L200.15 76.0563C201.05 82.0957 204.842 87.3152 210.308 90.037L222.902 96.3086C232.265 100.971 235.982 112.408 231.147 121.684L224.644 134.161C221.822 139.575 221.822 146.027 224.644 151.442L231.147 163.918C235.982 173.194 232.265 184.631 222.902 189.294L210.308 195.566C204.842 198.287 201.05 203.507 200.15 209.546L198.077 223.462C196.536 233.808 186.807 240.877 176.492 239.145L162.616 236.816C156.595 235.805 150.459 237.799 146.181 242.156L136.325 252.196C128.997 259.66 116.971 259.66 109.643 252.196L99.7866 242.156C95.509 237.799 89.3732 235.805 83.3514 236.816L69.4759 239.145C59.1604 240.877 49.4313 233.808 47.8903 223.462L45.8175 209.546C44.9179 203.507 41.1257 198.287 35.6599 195.566L23.0655 189.294C13.7024 184.631 9.98619 173.194 14.8205 163.918L21.3233 151.442C24.1454 146.027 24.1453 139.575 21.3233 134.161L14.8205 121.684C9.98619 112.408 13.7024 100.971 23.0655 96.3086L35.6599 90.037C41.1257 87.3152 44.9179 82.0957 45.8175 76.0563L47.8903 62.1403C49.4313 51.7946 59.1604 44.726 69.4759 46.4574L83.3514 48.7863C89.3732 49.7971 95.509 47.8034 99.7866 43.4462L109.643 33.4062Z" fill="#FBAA1A"/>
<path d="M102.643 13.5889C109.971 6.1248 121.997 6.1248 129.325 13.5889L139.181 23.6288C143.459 27.986 149.595 29.9797 155.616 28.969L169.492 26.64C179.807 24.9086 189.536 31.9772 191.077 42.3229L193.15 56.2389C194.05 62.2783 197.842 67.4978 203.308 70.2196L215.902 76.4912C225.265 81.1538 228.982 92.5911 224.147 101.867L217.644 114.343C214.822 119.758 214.822 126.21 217.644 131.624L224.147 144.101C228.982 153.377 225.265 164.814 215.902 169.476L203.308 175.748C197.842 178.47 194.05 183.689 193.15 189.729L191.077 203.645C189.536 213.991 179.807 221.059 169.492 219.328L155.616 216.999C149.595 215.988 143.459 217.982 139.181 222.339L129.325 232.379C121.997 239.843 109.971 239.843 102.643 232.379L92.7866 222.339C88.509 217.982 82.3732 215.988 76.3514 216.999L62.4759 219.328C52.1604 221.059 42.4313 213.991 40.8903 203.645L38.8175 189.729C37.9179 183.689 34.1257 178.47 28.6599 175.748L16.0655 169.476C6.70238 164.814 2.98619 153.377 7.82054 144.101L14.3233 131.624C17.1454 126.21 17.1453 119.758 14.3233 114.343L7.82054 101.867C2.98619 92.5911 6.70238 81.1538 16.0655 76.4912L28.6599 70.2196C34.1257 67.4978 37.9179 62.2783 38.8175 56.2389L40.8903 42.3229C42.4313 31.9772 52.1604 24.9086 62.4759 26.64L76.3514 28.969C82.3732 29.9797 88.509 27.986 92.7866 23.6288L102.643 13.5889Z" fill="#074077"/>
</g>
<defs>
<clipPath id="clip0_1070_1189">
<rect width="125" height="266.006" fill="white"/>
</clipPath>
</defs>
</svg>
